<svg width="15" height="16" viewBox="0 0 15 16" fill="none" xmlns="http://www.w3.org/2000/svg">
<path fill-rule="evenodd" clip-rule="evenodd" d="M14.3271 7.35502C14.6833 7.71123 14.6833 8.28877 14.3271 8.64498L7.9421 15.03C7.58589 15.3862 7.00835 15.3862 6.65214 15.03L0.26716 8.64498C0.0890248 8.46685 -2.83977e-05 8.23336 6.79265e-09 7.99989V3.4393C6.79265e-09 1.92802 1.22514 0.702881 2.73642 0.702881H7.29737C7.53072 0.702944 7.76406 0.791998 7.9421 0.97004L14.3271 7.35502ZM2.73642 4.35144C3.24018 4.35144 3.64856 3.94306 3.64856 3.4393C3.64856 2.93554 3.24018 2.52716 2.73642 2.52716C2.23266 2.52716 1.82428 2.93554 1.82428 3.4393C1.82428 3.94306 2.23266 4.35144 2.73642 4.35144Z" fill="#EA580C"/>
</svg>
