<svg width="36" height="36" viewBox="0 0 36 36" fill="none" xmlns="http://www.w3.org/2000/svg">
<path d="M1.51159 17.8475C1.51077 20.8044 2.28338 23.6915 3.75247 26.2363L1.37109 34.9311L10.2691 32.598C12.7302 33.9378 15.4877 34.6399 18.2898 34.64H18.2972C27.5476 34.64 35.0776 27.1127 35.0816 17.8607C35.0833 13.3774 33.339 9.16168 30.1697 5.98996C27.001 2.81852 22.7867 1.07102 18.2965 1.06897C9.04503 1.06897 1.51555 8.59586 1.51173 17.8475" fill="url(#paint0_linear_67_6936)"/>
<path d="M0.912312 17.842C0.911357 20.9053 1.71165 23.8957 3.23313 26.5316L0.766357 35.5381L9.98346 33.1214C12.5231 34.5061 15.3824 35.2361 18.292 35.2372H18.2995C27.8817 35.2372 35.6822 27.4391 35.6863 17.8559C35.688 13.2116 33.8809 8.84424 30.5984 5.5589C27.3155 2.27396 22.9505 0.46358 18.2995 0.46167C8.71556 0.46167 0.916131 8.25865 0.912312 17.842ZM6.4013 26.0777L6.05714 25.5314C4.61042 23.231 3.84682 20.5727 3.84791 17.8431C3.85105 9.87765 10.3336 3.39713 18.3049 3.39713C22.1652 3.39877 25.7931 4.9036 28.5217 7.63391C31.2503 10.3645 32.7517 13.9943 32.7507 17.8548C32.7472 25.8203 26.2645 32.3016 18.2995 32.3016H18.2937C15.7002 32.3002 13.1567 31.6037 10.9384 30.2876L10.4105 29.9745L4.94093 31.4085L6.4013 26.0775V26.0777Z" fill="url(#paint1_linear_67_6936)"/>
<path d="M13.9537 10.5758C13.6283 9.85245 13.2857 9.83786 12.9762 9.82517C12.7228 9.81426 12.4331 9.81508 12.1436 9.81508C11.8539 9.81508 11.3832 9.92407 10.9853 10.3585C10.5869 10.7934 9.4646 11.8443 9.4646 13.9816C9.4646 16.1191 11.0214 18.1847 11.2384 18.4748C11.4557 18.7644 14.2439 23.2909 18.6596 25.0323C22.3295 26.4794 23.0763 26.1916 23.8728 26.119C24.6694 26.0467 26.4432 25.0684 26.8051 24.054C27.1673 23.0397 27.1673 22.1702 27.0587 21.9885C26.9501 21.8075 26.6604 21.6988 26.2259 21.4816C25.7913 21.2643 23.6555 20.2133 23.2573 20.0683C22.859 19.9235 22.5694 19.8512 22.2797 20.2862C21.99 20.7205 21.158 21.6988 20.9044 21.9885C20.6511 22.2789 20.3976 22.3151 19.9632 22.0978C19.5285 21.8798 18.1294 21.4216 16.4695 19.9417C15.178 18.7902 14.3061 17.3682 14.0526 16.9332C13.7992 16.4988 14.0255 16.2634 14.2433 16.0469C14.4385 15.8523 14.6779 15.5396 14.8953 15.2861C15.112 15.0323 15.1842 14.8513 15.3291 14.5616C15.4741 14.2716 15.4015 14.0179 15.2931 13.8006C15.1842 13.5833 14.34 11.4348 13.9537 10.5758Z" fill="white"/>
<defs>
<linearGradient id="paint0_linear_67_6936" x1="1686.89" y1="3387.28" x2="1686.89" y2="1.06897" gradientUnits="userSpaceOnUse">
<stop stop-color="#1FAF38"/>
<stop offset="1" stop-color="#60D669"/>
</linearGradient>
<linearGradient id="paint1_linear_67_6936" x1="1746.77" y1="3508.11" x2="1746.77" y2="0.46167" gradientUnits="userSpaceOnUse">
<stop stop-color="#F9F9F9"/>
<stop offset="1" stop-color="white"/>
</linearGradient>
</defs>
</svg>
