<svg width="74" height="40" viewBox="0 0 74 40" fill="none" xmlns="http://www.w3.org/2000/svg">
<mask id="mask0_596_9131" style="mask-type:alpha" maskUnits="userSpaceOnUse" x="0" y="4" width="25" height="33">
<path d="M15.4262 20.4632L21.212 4.76038H0V36.0871H19.6769L24.9757 20.4632H15.4262Z" fill="#D9D9D9"/>
</mask>
<g mask="url(#mask0_596_9131)">
<path d="M15.5242 6.04565C7.49504 6.04565 0.986145 12.5545 0.986145 20.5837C0.986145 24.4779 2.51728 28.0145 5.01039 30.6244C8.54571 33.847 11.3894 34.7271 15.5242 34.7271C18.6964 34.7271 23.8758 34.4153 27.83 29.079C29.6171 25.9318 30.0622 24.4887 30.0622 20.5837C30.0622 16.5729 28.4379 12.9415 25.8113 10.3112C22.8302 7.32586 19.6511 6.04565 15.5242 6.04565ZM15.5242 11.1185C20.7451 11.1185 24.9894 15.3628 24.9894 20.5837C24.9894 25.8046 20.7451 30.0489 15.5242 30.0489C10.3033 30.0489 6.05899 25.8046 6.05899 20.5837C6.05899 15.3628 10.3033 11.1185 15.5242 11.1185ZM15.5242 12.232C14.2611 12.232 13.0646 12.5117 11.9924 13.0117C12.7067 15.0457 13.9292 17.6142 15.5242 17.6142C17.1217 17.6142 18.3035 15.0376 19.0351 13.0019C17.9681 12.5081 16.779 12.232 15.5242 12.232ZM21.6334 14.8848C19.9189 16.1928 17.8509 18.1506 18.344 19.6685C18.8378 21.1882 21.6543 21.5157 23.8165 21.5823C23.8553 21.2548 23.8758 20.9218 23.8758 20.5837C23.8758 18.3787 23.0249 16.3762 21.6334 14.8848ZM9.40106 14.8998C8.01778 16.3896 7.17254 18.3861 7.17254 20.5837C7.17254 20.927 7.19357 21.2653 7.23366 21.5976C9.38857 21.5466 12.2063 21.1774 12.699 19.6613C13.1923 18.143 11.1103 16.2246 9.40106 14.8998ZM13.7432 17.5997C13.6419 17.6026 13.5433 17.6331 13.4581 17.6879C13.3728 17.7427 13.3042 17.8197 13.2594 17.9106C13.2147 18.0015 13.1957 18.1029 13.2043 18.2038C13.213 18.3048 13.249 18.4015 13.3086 18.4835C13.365 18.5611 13.4404 18.6228 13.5277 18.6627C13.615 18.7026 13.7111 18.7192 13.8066 18.711C13.9022 18.7028 13.9941 18.6701 14.0733 18.6159C14.1525 18.5618 14.2164 18.4881 14.2587 18.402C14.301 18.3159 14.3204 18.2203 14.3149 18.1245C14.3095 18.0287 14.2793 17.936 14.2275 17.8553C14.1756 17.7746 14.1038 17.7086 14.0189 17.6639C13.9341 17.6191 13.8391 17.597 13.7432 17.5997ZM17.3052 17.5997C17.2093 17.597 17.1143 17.6191 17.0294 17.6639C16.9446 17.7086 16.8727 17.7746 16.8209 17.8553C16.769 17.936 16.7389 18.0287 16.7334 18.1245C16.7279 18.2203 16.7473 18.3159 16.7896 18.402C16.832 18.4881 16.8958 18.5618 16.975 18.6159C17.0542 18.6701 17.1461 18.7028 17.2417 18.711C17.3373 18.7192 17.4334 18.7026 17.5206 18.6627C17.6079 18.6228 17.6834 18.5611 17.7398 18.4835C17.7993 18.4015 17.8353 18.3048 17.844 18.2038C17.8527 18.1029 17.8336 18.0015 17.7889 17.9106C17.7442 17.8197 17.6755 17.7427 17.5903 17.6879C17.505 17.6331 17.4065 17.6026 17.3052 17.5997ZM15.5242 18.604C14.4308 18.604 13.5445 19.4904 13.5445 20.5837C13.5445 21.677 14.4308 22.5633 15.5242 22.5633C16.6175 22.5633 17.5038 21.677 17.5038 20.5837C17.5038 19.4904 16.6175 18.604 15.5242 18.604ZM12.6601 20.9571C12.5729 20.9584 12.4872 20.9801 12.4099 21.0205C12.3327 21.0609 12.266 21.1189 12.2152 21.1898C12.1645 21.2608 12.1311 21.3426 12.1177 21.4288C12.1044 21.5149 12.1115 21.603 12.1384 21.686C12.1841 21.8264 12.2836 21.9429 12.4152 22.01C12.5467 22.077 12.6995 22.089 12.84 22.0434C12.9667 22.0023 13.0745 21.917 13.1437 21.8031C13.2129 21.6893 13.239 21.5544 13.2173 21.4229C13.1955 21.2914 13.1273 21.1721 13.0251 21.0867C12.9228 21.0012 12.7933 20.9553 12.6601 20.9571ZM18.358 20.9575C18.2189 20.9631 18.087 21.0205 17.9882 21.1185C17.8894 21.2164 17.8309 21.3478 17.8241 21.4868C17.8173 21.6258 17.8629 21.7622 17.9517 21.8693C18.0405 21.9764 18.1662 22.0464 18.3041 22.0654C18.4419 22.0844 18.5819 22.0512 18.6964 21.9722C18.8109 21.8931 18.8917 21.7741 18.9229 21.6385C18.954 21.5029 18.9333 21.3606 18.8647 21.2395C18.7961 21.1184 18.6847 21.0274 18.5524 20.9844C18.4897 20.964 18.4239 20.9549 18.358 20.9575ZM12.7042 22.6721C11.3685 22.6785 9.59612 23.7134 8.22373 24.6473C9.40094 26.761 11.4691 28.3074 13.9241 28.7821C14.5421 26.7164 15.0636 23.9185 13.7727 22.9807C13.4725 22.7625 13.1085 22.6701 12.7042 22.6721ZM18.3348 22.6733C17.9277 22.6733 17.562 22.7671 17.2617 22.9852C15.969 23.9244 16.5278 26.7036 17.1325 28.7805C19.5877 28.3032 21.6553 26.7539 22.8302 24.6373C21.4688 23.6955 19.6791 22.6734 18.3348 22.6733ZM15.5242 23.0323C15.3765 23.0323 15.2349 23.0909 15.1305 23.1953C15.0261 23.2997 14.9674 23.4414 14.9674 23.589C14.9674 23.7367 15.0261 23.8783 15.1305 23.9827C15.2349 24.0871 15.3765 24.1458 15.5242 24.1458C15.6718 24.1458 15.8135 24.0871 15.9179 23.9827C16.0223 23.8783 16.0809 23.7367 16.0809 23.589C16.0809 23.4414 16.0223 23.2997 15.9179 23.1953C15.8135 23.0909 15.6718 23.0323 15.5242 23.0323Z" fill="url(#paint0_linear_596_9131)"/>
</g>
<path d="M27.6648 33.7813H22.1519L28.3631 14.964H35.3461L41.5572 33.7813H36.0444L31.9281 20.1461H31.7811L27.6648 33.7813Z" fill="#1F2937"/>
<path d="M25.5558 29.0942L31.3697 29.0941L32.8535 33.7813H25.5558V29.0942Z" fill="#1F2937"/>
<path d="M42.4479 39.0738V19.6685H47.483V22.1309H47.5932C47.777 21.6531 48.0465 21.2152 48.4018 20.817C48.7571 20.4127 49.1981 20.0912 49.7249 19.8523C50.2517 19.6072 50.8642 19.4847 51.5625 19.4847C52.4936 19.4847 53.3787 19.7328 54.2179 20.229C55.0632 20.7251 55.7492 21.5061 56.276 22.572C56.8089 23.6378 57.0754 25.0221 57.0754 26.725C57.0754 28.3543 56.8212 29.705 56.3128 30.777C55.8105 31.8489 55.1367 32.6483 54.2914 33.1751C53.4522 33.7018 52.5303 33.9652 51.5258 33.9652C50.8642 33.9652 50.2731 33.858 49.7524 33.6437C49.2379 33.4231 48.7969 33.1261 48.4294 32.7524C48.068 32.3726 47.7892 31.9438 47.5932 31.4661H47.5197V39.0738H42.4479ZM47.4095 26.725C47.4095 27.411 47.4983 28.0052 47.6759 28.5075C47.8597 29.0036 48.117 29.3895 48.4477 29.6652C48.7846 29.9347 49.1858 30.0695 49.6514 30.0695C50.1169 30.0695 50.512 29.9378 50.8366 29.6744C51.1674 29.4049 51.4186 29.022 51.5901 28.5259C51.7677 28.0236 51.8565 27.4233 51.8565 26.725C51.8565 26.0267 51.7677 25.4295 51.5901 24.9333C51.4186 24.431 51.1674 24.0482 50.8366 23.7848C50.512 23.5153 50.1169 23.3805 49.6514 23.3805C49.1858 23.3805 48.7846 23.5153 48.4477 23.7848C48.117 24.0482 47.8597 24.431 47.6759 24.9333C47.4983 25.4295 47.4095 26.0267 47.4095 26.725Z" fill="#1F2937"/>
<path d="M58.6295 39.0738V19.6685H63.6646V22.1309H63.7748C63.9586 21.6531 64.2281 21.2152 64.5834 20.817C64.9386 20.4127 65.3797 20.0912 65.9065 19.8523C66.4332 19.6072 67.0458 19.4847 67.7441 19.4847C68.6752 19.4847 69.5603 19.7328 70.3995 20.229C71.2448 20.7251 71.9308 21.5061 72.4576 22.572C72.9905 23.6378 73.257 25.0221 73.257 26.725C73.257 28.3543 73.0028 29.705 72.4944 30.777C71.9921 31.8489 71.3183 32.6483 70.473 33.1751C69.6338 33.7018 68.7119 33.9652 67.7073 33.9652C67.0458 33.9652 66.4547 33.858 65.934 33.6437C65.4195 33.4231 64.9785 33.1261 64.6109 32.7524C64.2495 32.3726 63.9708 31.9438 63.7748 31.4661H63.7013V39.0738H58.6295ZM63.5911 26.725C63.5911 27.411 63.6799 28.0052 63.8575 28.5075C64.0413 29.0036 64.2985 29.3895 64.6293 29.6652C64.9662 29.9347 65.3674 30.0695 65.833 30.0695C66.2985 30.0695 66.6936 29.9378 67.0182 29.6744C67.349 29.4049 67.6001 29.022 67.7716 28.5259C67.9493 28.0236 68.0381 27.4233 68.0381 26.725C68.0381 26.0267 67.9493 25.4295 67.7716 24.9333C67.6001 24.431 67.349 24.0482 67.0182 23.7848C66.6936 23.5153 66.2985 23.3805 65.833 23.3805C65.3674 23.3805 64.9662 23.5153 64.6293 23.7848C64.2985 24.0482 64.0413 24.431 63.8575 24.9333C63.6799 25.4295 63.5911 26.0267 63.5911 26.725Z" fill="#1F2937"/>
<path d="M45.3378 12.3036V5.15972H49.902V17.86H45.5693V15.4456H45.437C45.1614 16.2559 44.6791 16.8898 43.9901 17.3474C43.301 17.7994 42.4825 18.0254 41.5343 18.0254C40.6469 18.0254 39.8696 17.8214 39.2027 17.4135C38.5412 17.0056 38.0258 16.4434 37.6565 15.7268C37.2927 15.0102 37.108 14.1888 37.1025 13.2628V5.15972H41.6666V12.3036C41.6722 12.932 41.832 13.4254 42.1462 13.7837C42.4659 14.142 42.9124 14.3211 43.4857 14.3211C43.866 14.3211 44.194 14.2412 44.4696 14.0813C44.7508 13.916 44.9657 13.6845 45.1146 13.3868C45.2689 13.0836 45.3433 12.7226 45.3378 12.3036Z" fill="#EA580C"/>
<path d="M59.7972 5.15972V8.46709H51.4296V5.15972H59.7972ZM53.0502 2.11694H57.6143V13.7754C57.6143 13.9518 57.6447 14.1006 57.7053 14.2219C57.7659 14.3377 57.8596 14.4259 57.9864 14.4865C58.1132 14.5416 58.2758 14.5692 58.4743 14.5692C58.6121 14.5692 58.7719 14.5526 58.9538 14.5196C59.1413 14.4865 59.2791 14.4589 59.3673 14.4369L60.0287 17.645C59.8248 17.7057 59.5326 17.7801 59.1523 17.8683C58.7774 17.9565 58.3309 18.0143 57.8128 18.0419C56.7655 18.097 55.8863 17.9895 55.1752 17.7194C54.4641 17.4438 53.9294 17.0111 53.5711 16.4213C53.2128 15.8315 53.0392 15.0928 53.0502 14.2054V2.11694Z" fill="#EA580C"/>
<path d="M66.7463 18.0916C65.3683 18.0916 64.1886 17.8187 63.2074 17.273C62.2263 16.7218 61.4738 15.9555 60.9502 14.9744C60.4265 13.9877 60.1647 12.8439 60.1647 11.543C60.1647 10.2421 60.4265 9.10103 60.9502 8.11985C61.4738 7.13315 62.2263 6.36694 63.2074 5.82123C64.1886 5.27 65.3683 4.99438 66.7463 4.99438C68.1244 4.99438 69.304 5.27 70.2852 5.82123C71.2664 6.36694 72.0188 7.13315 72.5425 8.11985C73.0662 9.10103 73.328 10.2421 73.328 11.543C73.328 12.8439 73.0662 13.9877 72.5425 14.9744C72.0188 15.9555 71.2664 16.7218 70.2852 17.273C69.304 17.8187 68.1244 18.0916 66.7463 18.0916ZM66.7794 14.718C67.1653 14.718 67.4988 14.5885 67.7799 14.3294C68.061 14.0703 68.2787 13.701 68.4331 13.2215C68.5874 12.7419 68.6646 12.1714 68.6646 11.5099C68.6646 10.8429 68.5874 10.2724 68.4331 9.79833C68.2787 9.31876 68.061 8.94944 67.7799 8.69037C67.4988 8.43129 67.1653 8.30175 66.7794 8.30175C66.3715 8.30175 66.0215 8.43129 65.7293 8.69037C65.4372 8.94944 65.2139 9.31876 65.0596 9.79833C64.9052 10.2724 64.8281 10.8429 64.8281 11.5099C64.8281 12.1714 64.9052 12.7419 65.0596 13.2215C65.2139 13.701 65.4372 14.0703 65.7293 14.3294C66.0215 14.5885 66.3715 14.718 66.7794 14.718Z" fill="#EA580C"/>
<path d="M22.008 19.6511H17.047L24.4275 0.92627H30.7115L36.301 17.86H31.3399L27.6357 5.58966H27.5034L22.008 19.6511Z" fill="#EA580C"/>
<path d="M21.4593 14.964L35.3638 14.964L36.8926 19.6511H21.4593V14.964Z" fill="#EA580C"/>
<defs>
<linearGradient id="paint0_linear_596_9131" x1="15.5242" y1="6.04565" x2="15.5242" y2="34.7271" gradientUnits="userSpaceOnUse">
<stop offset="0.307288" stop-color="#7C2D12"/>
<stop offset="1" stop-color="#EA580C"/>
</linearGradient>
</defs>
</svg>
